<svg width="20" height="19" viewBox="0 0 20 19" fill="none" xmlns="http://www.w3.org/2000/svg">
<path d="M6.04 7.54H6.54V7.04V5.15089L12.1449 9.50037L6.54 13.8579V11.96V11.46H6.04H0.5V7.54H6.04ZM5 1.5H4.5V2V3.5H3.5V2C3.5 1.60218 3.65804 1.22064 3.93934 0.93934C4.22064 0.658035 4.60218 0.5 5 0.5H18C18.3978 0.5 18.7794 0.658035 19.0607 0.93934C19.342 1.22064 19.5 1.60218 19.5 2V17C19.5 17.3978 19.342 17.7794 19.0607 18.0607C18.7794 18.342 18.3978 18.5 18 18.5H5C4.60218 18.5 4.22064 18.342 3.93934 18.0607C3.65804 17.7794 3.5 17.3978 3.5 17V15.5H4.5V17V17.5H5H18H18.5V17V2V1.5H18H5Z" fill="white" stroke="black"/>
</svg>
